<svg xmlns="http://www.w3.org/2000/svg" style="display: none;"><symbol id="facebook" viewBox="0 0 512 512"><title>facebook</title><path style="fill:#1976D2;" d="M448,0H64C28.704,0,0,28.704,0,64v384c0,35.296,28.704,64,64,64h384c35.296,0,64-28.704,64-64V64 C512,28.704,483.296,0,448,0z"/><path style="fill:#FAFAFA;" d="M432,256h-80v-64c0-17.664,14.336-16,32-16h32V96h-64l0,0c-53.024,0-96,42.976-96,96v64h-64v80h64 v176h96V336h48L432,256z"/></symbol><symbol id="skills" viewBox="0 0 512.129 512.129"><title>skills</title><g> <path style="fill:#415A6B;" d="M397.995,455.531h-53.333c-6.4,0-10.667-4.267-10.667-10.667V68.331 c0-6.4,4.267-10.667,10.667-10.667h53.333v21.333h-42.667v355.2h42.667V455.531z"/> <rect x="316.929" y="245.398" style="fill:#415A6B;" width="75.733" height="21.333"/> </g><g> <polygon style="fill:#FFD15C;" points="79.062,454.464 59.862,459.798 45.995,436.331 65.195,429.931 "/> <polygon style="fill:#FFD15C;" points="281.729,446.998 265.729,467.264 253.995,436.331 276.395,423.531 "/> </g><g> <path style="fill:#E8EAE9;" d="M263.595,187.798l8.533-10.667c0,0,18.133,19.2,24.533,40.533c6.4,21.333,9.6,44.8,14.933,57.6 c5.333,12.8,20.267,42.667,14.933,60.8c-4.267,18.133-27.733,77.867-29.867,84.267c-3.2,7.467-3.2,7.467-3.2,7.467l-16,26.667 c0,0-7.467-14.933-28.8-21.333l9.6-24.533c0,0,5.333-9.6,6.4-19.2c1.067-9.6,0-14.933,2.133-25.6 c2.133-9.6,4.267-23.467,5.333-27.733c1.067-5.333,5.333-11.733,2.133-18.133c-3.2-6.4-26.667-55.467-26.667-55.467 L263.595,187.798z"/> <path style="fill:#E8EAE9;" d="M65.195,188.864l-8.533-10.667c0,0-18.133,19.2-24.533,40.533s-9.6,45.867-16,58.667 c-6.4,12.8-20.267,42.667-14.933,60.8c4.267,18.133,27.733,77.867,29.867,84.267s3.2,7.467,3.2,7.467l16,26.667 c0,0,7.467-14.933,28.8-21.333l-9.6-24.533c0,0-5.333-9.6-6.4-19.2c-1.067-9.6,0-14.933-2.133-25.6 c-2.133-9.6-4.267-23.467-5.333-27.733c-2.133-5.333-6.4-11.733-3.2-18.133c3.2-6.4,26.667-55.467,26.667-55.467L65.195,188.864z"/> </g><g> <path style="fill:#FFD15C;" d="M197.462,92.864c0,0-1.067,22.4-4.267,29.867v24.533l-24.533,30.933l-37.333-20.267v-29.867 c0,0-6.4-17.067-7.467-35.2c-1.067-17.067-4.267-36.267-2.133-44.8s38.4-21.333,50.133-21.333s25.6,14.933,26.667,22.4 C199.596,54.464,200.662,88.598,197.462,92.864z"/> <ellipse transform="matrix(0.2033 -0.9791 0.9791 0.2033 77.2004 263.5803)" style="fill:#FFD15C;" cx="200.566" cy="84.352" rx="14.933" ry="6.4"/> <ellipse transform="matrix(0.2033 0.9791 -0.9791 0.2033 177.3591 -51.0759)" style="fill:#FFD15C;" cx="120.065" cy="83.446" rx="14.933" ry="6.4"/> </g><path style="fill:#415A6B;" d="M122.795,90.731h2.133c0,0-3.2-13.867-1.067-19.2c2.133-5.333,4.267-10.667,4.267-16 s0-11.733,7.467-10.667c7.467,1.067,43.733,2.133,52.267,1.067s8.533,12.8,8.533,17.067s3.2,13.867,3.2,17.067 c0,4.267-1.067,9.6-1.067,9.6h1.067c0,0,7.467-21.333,8.533-35.2s-8.533-43.733-40.533-52.267s-48,18.133-44.8,27.733 c0,0-14.933,3.2-10.667,24.533S122.795,90.731,122.795,90.731z"/><path style="fill:#F7B64C;" d="M157.995,147.264c-14.933-1.067-26.667-20.267-26.667-20.267v29.867l17.067,9.6 c41.6-16,44.8-43.733,44.8-43.733C188.929,132.331,172.929,148.331,157.995,147.264z"/><path style="fill:#CED6E0;" d="M198.529,141.931c0,0,7.467,7.467,20.267,13.867c12.8,6.4,46.933,17.067,53.333,21.333 c0,0,2.133,45.867-23.467,84.267c0,0-5.333,110.933,0,135.467c0,0-56.533,16-75.733,16s-83.2-16-89.6-20.267 c-7.467-4.267,8.533-59.733,9.6-69.333c0-8.533-10.667-59.733-10.667-59.733s-30.933-55.467-24.533-86.4 c0,0,23.467-8.533,39.467-17.067c17.067-8.533,30.933-22.4,30.933-22.4l28.8,23.467l9.6-1.067l23.467-6.4L198.529,141.931z"/><g> <path style="fill:#415A6B;" d="M160.129,179.264c4.267-1.067,6.4-1.067,9.6,0c1.067-4.267,6.4-8.533,11.733-11.733l-18.133-3.2 h-4.267l-9.6,3.2C155.862,169.664,159.062,174.998,160.129,179.264z"/> <path style="fill:#415A6B;" d="M185.729,347.798c-6.4,6.4-9.6,10.667-17.067,17.067c-3.2-3.2-13.867-13.867-17.067-17.067 c0,0,3.2-138.667,4.267-146.133c1.067-7.467,4.267-22.4,4.267-22.4l7.467-4.267l3.2,5.333c0,0,5.333,19.2,5.333,30.933 C176.129,219.798,182.529,302.998,185.729,347.798z"/> </g><g> <path style="fill:#F3F3F3;" d="M193.195,136.598c0,0-13.867,20.267-27.733,26.667c0,0,14.933,10.667,16,17.067 c0,0,19.2-23.467,19.2-32C200.662,139.798,193.195,136.598,193.195,136.598z"/> <path style="fill:#F3F3F3;" d="M161.195,163.264c0,0-7.467,5.333-12.8,17.067c0,0-18.133-19.2-23.467-32 c-1.067-3.2-1.067-6.4,2.133-9.6l5.333-5.333C131.329,133.398,135.595,152.598,161.195,163.264z"/> </g><path style="fill:#415A6B;" d="M247.596,392.598c0,0,7.467,34.133,14.933,50.133c7.467,16,4.267,23.467,4.267,23.467 s-9.6,7.467-9.6,45.867h-92.8l-1.067-4.267l-2.133,4.267h-89.6c0,0,1.067-29.867-13.867-55.467c0,0,5.333-20.267,13.867-36.267 s11.733-29.867,11.733-29.867C136.662,404.331,192.129,405.398,247.596,392.598z"/><path style="fill:#F3705A;" d="M512.129,21.398v93.867c0,11.733-9.6,21.333-21.333,21.333h-93.867 c-11.733,0-21.333-9.6-21.333-21.333V21.398c0-11.733,9.6-21.333,21.333-21.333h93.867C502.529,0.064,512.129,9.664,512.129,21.398z "/><rect x="407.596" y="32.064" style="fill:#F05540;" width="72.533" height="72.533"/><path style="fill:#66C6B9;" d="M512.129,209.131v93.867c0,11.733-9.6,21.333-21.333,21.333h-93.867 c-11.733,0-21.333-9.6-21.333-21.333v-93.867c0-11.733,9.6-21.333,21.333-21.333h93.867 C502.529,187.798,512.129,197.398,512.129,209.131z"/><rect x="407.596" y="219.798" style="fill:#4ABAA5;" width="72.533" height="72.533"/><path style="fill:#FFD15C;" d="M512.129,396.864v93.867c0,11.733-9.6,21.333-21.333,21.333h-93.867 c-11.733,0-21.333-9.6-21.333-21.333v-93.867c0-11.733,9.6-21.333,21.333-21.333h93.867 C502.529,375.531,512.129,385.131,512.129,396.864z"/><rect x="407.596" y="407.531" style="fill:#F7B64C;" width="72.533" height="72.533"/></symbol><symbol id="coordinator" viewBox="0 0 512 512"><title>coordinator</title><path d="M462.3302,231.16511l21.05341-39.45137A39.20021,39.20021,0,0,0,488,173.258v0a39.20013,39.20013,0,0,0-19.03182-33.61382L462.89464,136H432v32l-33.18574,31.40716,0,0,63.51593,31.758Z" style="fill:#ffceb6"/><rect x="416" y="64" width="64" height="104" rx="16" ry="16" style="fill:#4f5dff"/><polygon points="352 282.703 398.814 199.407 462.33 231.165 410.654 328 352 328 352 282.703" style="fill:#f78e00"/><path d="M440,200V177.28531a24,24,0,0,0-7.37053-17.30493L421.16542,148.9638a7.77687,7.77687,0,0,0-10.53569-.22238h0A7.77687,7.77687,0,0,0,408,154.57122v28.492l-9.18574,16.344Z" style="fill:#ffceb6"/><polygon points="160 282.703 113.186 199.407 49.67 231.165 101.346 328 160 328 160 282.703" style="fill:#f78e00"/><path d="M49.6698,231.16511,28.61639,191.71374A39.20021,39.20021,0,0,1,24,173.258v0a39.20013,39.20013,0,0,1,19.03182-33.61382L49.10536,136H80v32l33.18574,31.40716,0,0-63.51593,31.758Z" style="fill:#ffceb6"/><path d="M434.82007,344.23v32.62988H384.62012L344,320V488H168V320l-40,56H56l63.37988-95.06006A55.98948,55.98948,0,0,1,165.97,256H346.03a55.98948,55.98948,0,0,1,46.59009,24.93994Z" style="fill:#ffa100"/><polygon points="264 296 280 392 256 416 232 392 248 296 264 296" style="fill:#ef5e3b"/><path d="M160,456H280v16a16,16,0,0,1-16,16H160Z" style="fill:#3942ed"/><polygon points="64 488 24 376 144 376 184 488 64 488" style="fill:#4f5dff"/><circle cx="104" cy="432" r="16" style="fill:#788dff"/><polygon points="488 352 392 312 336 456 432 488 488 352" style="fill:#ffc431"/><path d="M416,408h32V395.3137A11.31369,11.31369,0,0,1,459.3137,384h0a11.31372,11.31372,0,0,1,8,3.31371L488,408v24a24,24,0,0,1-24,24H432a16,16,0,0,1-16-16Z" style="fill:#ffceb6"/><rect x="56" y="80" width="16" height="32" style="fill:#ffa100"/><path d="M80,112H48v48a16,16,0,0,0,16,16h0a16,16,0,0,0,16-16Z" style="fill:#c47220"/><polygon points="248 296 240 280 256 264 272 280 264 296 248 296" style="fill:#e04f2b"/><path d="M304,144v72a48,48,0,0,1-48,48H256a48,48,0,0,1-48-48V184l40-40Z" style="fill:#ffceb6"/><path d="M304,144l5.06751-2.53375A19.77708,19.77708,0,0,0,320,123.7771v0A19.77706,19.77706,0,0,0,300.22293,104H248a40,40,0,0,0-40,40v40l40-40Z" style="fill:#c47220"/><path d="M72,200V177.28531a24,24,0,0,1,7.37053-17.30493L90.83458,148.9638a7.77687,7.77687,0,0,1,10.53569-.22238h0A7.77687,7.77687,0,0,1,104,154.57122v28.492l9.18574,16.344Z" style="fill:#ffceb6"/><circle cx="64" cy="56" r="32" style="fill:#8be0e8"/><path d="M104,408a24,24,0,1,0,24,24A24.0275,24.0275,0,0,0,104,408Zm0,32a8,8,0,1,1,8-8A8.00917,8.00917,0,0,1,104,440Z"/><circle cx="248" cy="184" r="8"/><path d="M245.65723,210.34277l-11.31446,11.31446A35.08246,35.08246,0,0,0,259.31348,232H280V216H259.31348A19.18268,19.18268,0,0,1,245.65723,210.34277Z"/><circle cx="280" cy="184" r="8"/><path d="M481.09473,389.78027l14.30273-34.73437a7.99961,7.99961,0,0,0-4.32031-10.43067L426.85034,317.854l-27.56909-41.355A63.87277,63.87277,0,0,0,346.0293,248H301.917A55.67322,55.67322,0,0,0,312,216V148.94336l.64453-.32227A27.77652,27.77652,0,0,0,300.22266,96H248a48.05375,48.05375,0,0,0-48,48v72a55.67322,55.67322,0,0,0,10.083,32H165.9707a63.87277,63.87277,0,0,0-53.25195,28.499l-61,91.501H24a8.00045,8.00045,0,0,0-7.53418,10.69043l40,112A8.0003,8.0003,0,0,0,64,496H264a24.0275,24.0275,0,0,0,24-24V456a8.00039,8.00039,0,0,0-8-8H178.20947L176,441.814V320a7.99982,7.99982,0,0,0-14.50977-4.64941L123.88354,368H70.94775l55.0835-82.626A47.90543,47.90543,0,0,1,165.9707,264H202.584l13.98829,34.9707a8.00046,8.00046,0,0,0,13.085,2.68653l8.15161-8.15161,1.8728,3.74536L224.1084,390.68457a8.00582,8.00582,0,0,0,2.23437,6.97266l24,24a8.00181,8.00181,0,0,0,11.31446,0l24-24a8.00582,8.00582,0,0,0,2.23437-6.97266L272.31836,297.251l1.8728-3.74536,8.15161,8.15161a8,8,0,0,0,13.085-2.68653L309.416,264H346.0293a47.90543,47.90543,0,0,1,39.93945,21.374l14.25732,21.38648-5.14892-2.14527a8.001,8.001,0,0,0-10.5332,4.48536l-13.57129,34.89795-20.46289-28.64795A7.99982,7.99982,0,0,0,336,320V433.92773L328.544,453.10059a8.001,8.001,0,0,0,4.92578,10.48925L336,464.43335V496h16V469.7666l77.46973,25.82324a7.99389,7.99389,0,0,0,9.92773-4.54394L450.53418,464H464a32.03667,32.03667,0,0,0,32-32V408a8.00235,8.00235,0,0,0-2.34277-5.65723ZM272,464v8a8.00917,8.00917,0,0,1-8,8H189.63794l-5.71436-16ZM160,344.96387v52.05005l-8.46582-23.70435A8.0003,8.0003,0,0,0,144,368h-.45459ZM138.3623,384l34.28614,96H69.6377L35.35156,384ZM216,144a32.03667,32.03667,0,0,1,32-32h52.22266a11.77675,11.77675,0,0,1,5.2666,22.31055L302.11108,136H248a8.00235,8.00235,0,0,0-5.65723,2.34277L216,164.68555Zm10.92188,137.76465L219.81592,264h7.374a55.741,55.741,0,0,0,12.05786,5.43823ZM256,404.68652l-15.43164-15.43261L254.77734,304h2.44532l14.209,85.25391Zm-6.26562-123.10644L256,275.31445l6.26562,6.26563L259.05566,288h-6.11132Zm35.34374.18457L272.7522,269.43823A55.741,55.741,0,0,0,284.81006,264h7.374ZM296,216a40,40,0,0,1-80,0V187.31348L251.31348,152H296Zm56,128.96387,12.0415,16.85742L352,392.78516Zm75.44531,133.085L346.502,451.06738l49.98438-128.53125,81.083,33.78418-9.061,22.0044A19.3201,19.3201,0,0,0,440,395.31348V400H416a8.00039,8.00039,0,0,0-8,8v32a24.0275,24.0275,0,0,0,24,24h1.23047ZM480,432a16.01833,16.01833,0,0,1-16,16H432a8.00917,8.00917,0,0,1-8-8V416h24a8.00039,8.00039,0,0,0,8-8V395.31348a3.31318,3.31318,0,0,1,5.65625-2.34278L480,411.31348Z"/><path d="M72.94238,291.7666l14.11524-7.5332L60.59546,234.64648l49.35083-24.67529,19.08008,33.94873,13.94726-7.83984L112,180.96973V154.57129a15.76,15.76,0,0,0-24-13.44214V112a8.00039,8.00039,0,0,0-8-8H72V95.19507a40,40,0,1,0-16,0V104H48a8.00039,8.00039,0,0,0-8,8v20.13379l-1.084.65039a47.20017,47.20017,0,0,0-17.35743,62.69629ZM40,56A24,24,0,1,1,64,80,24.0275,24.0275,0,0,1,40,56Zm16,64H72v36.136a32.20577,32.20577,0,0,0-6.56421,11.719A7.92514,7.92514,0,0,1,56,160ZM40,152.44189V160a24.0275,24.0275,0,0,0,24,24v7.06348H80V177.28516A16.07757,16.07757,0,0,1,84.91309,165.749L96,155.0957v27.96778a8.00045,8.00045,0,0,0,1.02637,3.91992l5.07129,9.02344-49.03785,24.519-17.385-32.57764A31.12846,31.12846,0,0,1,40,152.44189Z"/><path d="M419.65527,281.55371l9.47461,12.89258A48.88768,48.88768,0,0,0,442.793,279.06445l47.1543-83.21191a46.56122,46.56122,0,0,0-1.376-48.1875L488,148.03345V80a24.0275,24.0275,0,0,0-24-24H432a24.0275,24.0275,0,0,0-24,24v60.86182a15.51117,15.51117,0,0,0-2.666,1.8833A15.7873,15.7873,0,0,0,400,154.57129v26.39844l-30.97363,55.11035,13.94726,7.83984,19.08008-33.94873,47.92358,23.96192L428.87305,271.1748A32.96581,32.96581,0,0,1,419.65527,281.55371ZM432,72h8a8,8,0,0,0,16,0h8a8.00917,8.00917,0,0,1,8,8v72a8.00917,8.00917,0,0,1-8,8H442.9082a31.79126,31.79126,0,0,0-4.73535-5.78809L426.709,143.19629A15.50789,15.50789,0,0,0,424,141.12891V80A8.00917,8.00917,0,0,1,432,72ZM409.90234,196.00684l5.07129-9.02344A8.00045,8.00045,0,0,0,416,183.06348V155.0957L427.08691,165.749A16.07757,16.07757,0,0,1,432,177.28516v13.77832h16V177.28516c0-.4292-.01562-.85743-.0332-1.28516H464a23.89428,23.89428,0,0,0,15.84619-5.99756c.09107.95947.15381,1.9231.15381,2.894a30.61914,30.61914,0,0,1-3.97266,15.06739l-18.15088,32.03Z"/></symbol><symbol id="clipboard" viewBox="0 0 512.499 512.499"><title>clipboard</title><path style="fill:#66C6B9;" d="M393.6,75.416v409.6c0,14.933-11.733,26.667-26.667,26.667H26.667 C11.733,512.749,0,501.016,0,486.083V75.416c0-14.933,11.733-26.667,26.667-26.667h340.267 C381.867,48.749,393.6,61.549,393.6,75.416z"/><rect x="45.867" y="91.416" style="fill:#FFFFFF;" width="301.867" height="375.467"/><path style="fill:#415A6B;" d="M281.6,110.616V51.949c0-8.533-6.4-14.933-14.933-14.933h-34.133l0,0c0-19.2-16-36.267-36.267-36.267 c-19.2,0-35.2,16-35.2,36.267l0,0h-34.133c-8.533,0-14.933,6.4-14.933,14.933v58.667H281.6z M197.333,24.216 c6.4,0,12.8,5.333,12.8,12.8c0,6.4-5.333,12.8-12.8,12.8c-6.4,0-12.8-5.333-12.8-12.8S189.867,24.216,197.333,24.216z"/><path style="fill:#CED6E0;" d="M141.867,220.483H83.2v-58.667h58.667V220.483z M89.6,214.083h46.933v-46.933H89.6V214.083z"/><path style="fill:#F3705A;" d="M100.267,211.949c-2.133,0-4.267-1.067-6.4-3.2L70.4,185.283c-3.2-3.2-3.2-9.6,0-12.8 c3.2-3.2,9.6-3.2,12.8,0l16,16l34.133-34.133c3.2-3.2,9.6-3.2,12.8,0c3.2,3.2,3.2,9.6,0,12.8l-39.467,42.667 C105.6,210.883,102.4,211.949,100.267,211.949z"/><path style="fill:#CED6E0;" d="M141.867,328.216H83.2v-58.667h58.667V328.216z M89.6,322.883h46.933v-46.933H89.6V322.883z"/><path style="fill:#F3705A;" d="M100.267,319.683c-2.133,0-4.267-1.067-6.4-3.2L70.4,293.016c-3.2-3.2-3.2-9.6,0-12.8 c4.267-2.133,9.6-2.133,13.867,1.067l16,16l34.133-34.133c3.2-3.2,9.6-3.2,12.8,0s3.2,9.6,0,12.8l-40.533,41.6 C105.6,319.683,102.4,319.683,100.267,319.683z"/><path style="fill:#CED6E0;" d="M141.867,437.016H83.2v-58.667h58.667V437.016z M89.6,430.616h46.933v-46.933H89.6V430.616z"/><path style="fill:#F3705A;" d="M100.267,428.483c-2.133,0-4.267-1.067-6.4-3.2L70.4,401.816c-3.2-3.2-3.2-9.6,0-12.8 c3.2-3.2,9.6-3.2,12.8,0l17.067,17.067l34.133-34.133c3.2-3.2,9.6-3.2,12.8,0c3.2,3.2,3.2,9.6,0,12.8l-40.533,40.533 C105.6,427.416,102.4,428.483,100.267,428.483z"/><rect x="440.186" y="32.131" transform="matrix(0.5966 -0.8025 0.8025 0.5966 146.9174 398.1517)" style="fill:#415A6B;" width="58.665" height="41.599"/><path style="fill:#F3705A;" d="M435.2,61.549c22.4-7.467,53.333,5.333,53.333,5.333l-176,236.8 c-27.733,37.333-61.867,70.4-101.333,97.067l0,0l0,0c13.867-44.8,36.267-86.4,64-124.8L435.2,61.549z"/><rect x="289.379" y="243.836" transform="matrix(-0.5966 0.8025 -0.8025 -0.5966 709.3256 177.0012)" style="fill:#415A6B;" width="41.599" height="45.865"/><path style="fill:#F3705A;" d="M477.867,22.083l20.267,14.933l11.733-16c4.267-5.333,3.2-12.8-2.133-17.067l0,0 c-6.4-5.333-13.867-3.2-18.133,2.133L477.867,22.083z"/><path style="fill:#415A6B;" d="M472.533,35.949l-6.4,8.533l-16-11.733l-49.067,61.867c4.267,5.333,1.067,9.6-3.2,16 c-4.267,6.4-10.667,10.667-17.067,5.333l0,0l0,0c-2.133-2.133-3.2-5.333-1.067-7.467l64-86.4c2.133-2.133,5.333-3.2,7.467-1.067 L472.533,35.949z"/></symbol><symbol id="worker" viewBox="0 0 512 512"><title>worker</title><g> <g> <path d="M356,429c-5.52,0-10,4.48-10,10c0,5.52,4.48,10,10,10c5.52,0,10-4.48,10-10C366,433.48,361.52,429,356,429z"/> </g> </g><g> <g> <path d="M156,429c-5.52,0-10,4.48-10,10c0,5.52,4.48,10,10,10s10-4.48,10-10C166,433.48,161.52,429,156,429z"/> </g> </g><g> <g> <path d="M447.645,377.21c-11.257-17.424-26.726-31.269-44.847-40.21c-1.528-1.419-3.493-2.37-5.678-2.613 C384.013,328.823,370.197,326,356,326h-30v-26.383c17.361-14.896,29.842-34.626,35.894-56.617H366c22.056,0,40-17.944,40-40 c0-10.452-4.034-19.976-10.622-27.11c0.629-0.534,1.243-1.09,1.833-1.679C402.879,168.543,406,161.01,406,153 c0-13.163-8.526-24.366-20.343-28.396c-3.533-45.984-35.806-85.28-80.241-97.596C302.783,13.256,291.434,0,276,0h-40 c-15.434,0-26.783,13.256-29.416,27.008c-44.431,12.315-76.701,51.604-80.24,97.582c-4.302,1.459-8.247,3.892-11.555,7.199 C109.121,137.457,106,144.99,106,153c0,9.163,4.134,17.375,10.63,22.882C110.038,183.016,106,192.544,106,203 c0,22.056,17.944,40,40,40h4.078c5.052,18.357,14.631,35.21,27.994,49.131c2.511,2.618,5.173,5.112,7.928,7.478V326h-30 c-14.198,0-28.014,2.823-41.12,8.386c-2.184,0.244-4.15,1.194-5.677,2.613c-18.123,8.942-33.591,22.787-44.848,40.21 C52.347,395.796,46,417.163,46,439v63c0,5.522,4.477,10,10,10h400c5.523,0,10-4.478,10-10v-63 C466,417.163,459.653,395.796,447.645,377.21z M106,492H66v-53c0-30.417,15.582-59.571,40-76.878V492z M366,223h-0.456 c0.298-3.327,0.456-6.666,0.456-10v-30c11.028,0,20,8.972,20,20S377.028,223,366,223z M206,48.139V93c0,5.523,4.477,10,10,10 s10-4.477,10-10V35.063c0-0.026,0-0.052,0-0.078V33c0-6.196,5.234-13,10-13h40c4.766,0,10,6.804,10,13v1.985 c0,0.026,0,0.052,0,0.078V93c0,5.523,4.477,10,10,10s10-4.477,10-10V48.139c32.29,11.427,55.6,40.647,59.441,74.861H146.559 C150.4,88.786,173.71,59.566,206,48.139z M146,223c-11.028,0-20-8.972-20-20s8.972-20,20-20v30c0,3.334,0.158,6.674,0.456,10H146z M146,163h-10c-5.514,0-10-4.486-10-10c0-2.668,1.041-5.179,2.931-7.068c1.891-1.891,4.401-2.932,7.069-2.932h240 c5.514,0,10,4.486,10,10c0,2.668-1.041,5.179-2.931,7.068c-1.89,1.891-4.401,2.932-7.069,2.932h-10h-10H156H146z M167.817,231.183 c-0.02-0.109-0.039-0.217-0.063-0.324C166.593,224.99,166,218.983,166,213v-30h180v30c0,5.978-0.593,11.981-1.754,17.855 c-0.024,0.108-0.043,0.217-0.063,0.326c-4.469,22.307-16.837,42.275-34.847,56.241C293.69,299.576,275.247,306,256,306 s-37.69-6.424-53.351-18.589c-3.585-2.774-6.997-5.843-10.145-9.126C179.889,265.143,171.357,248.862,167.817,231.183z M246,492 h-80v-23c0-5.523-4.477-10-10-10s-10,4.477-10,10v23h-20V351.474c6.49-2.447,13.176-4.078,20-4.882V409c0,5.523,4.477,10,10,10 s10-4.477,10-10v-63h25.715L246,403V492z M206,332v-18.626C221.431,321.669,238.427,326,256,326c17.574,0,34.571-4.332,50-12.625 V332l-50,52.5L206,332z M386,492h-20v-23c0-5.523-4.477-10-10-10s-10,4.477-10,10v23h-80v-89l54.285-57H346v63 c0,5.523,4.477,10,10,10s10-4.477,10-10v-62.408c6.824,0.804,13.509,2.436,20,4.883V492z M446,492h-40V362.121 c24.418,17.307,40,46.461,40,76.879V492z"/> </g> </g></symbol><symbol id="monitoring" viewBox="0 0 64 64"><title>monitoring</title><g><g><path d="m25.42 62h-21.42v-8.29c0-2.95 1.2-5.63 3.14-7.57.84-.84 1.82-1.54 2.9-2.06 1.41-.69 3-1.08 4.67-1.08.44 0 .87.03 1.29.08 2.82.34 5.34 1.78 7.05 3.92 1.18 1.46 1.98 3.23 2.26 5.2l.69 4.8.03.08 4.81-2.19 1.98 4.46-4.38 2c-.95.43-1.98.65-3.02.65z" fill="#fcd770"/></g><g><path d="m37.42 56.99c.55-1.15.58-1.35.58-1.56 0-1.34-1.09-2.43-2.43-2.43h-.04c-.35 0-.69.07-1.01.22l-1.2.54c1.04-1.71 2.91-2.76 4.92-2.76h1.76c.73 0 1.41.2 2 .54.3.17.58.39.83.63.72.73 1.17 1.73 1.17 2.83s-.9 2-2 2h-4.57z" fill="#b4dd7f"/></g><g><path d="m33.32 53.76-.01.01-1.31.59v-7.36h10v4.54c-.59-.34-1.27-.54-2-.54h-1.76c-2.01 0-3.88 1.05-4.92 2.76z" fill="#aab2bd"/></g><g><path d="m62 39v4c0 2.21-1.79 4-4 4h-6-10-10-8.95c-1.71-2.14-4.23-3.58-7.05-3.92v-3.08h-.32c.85 0 1.66-.34 2.25-.93l.07-.07z" fill="#ccd1d9"/></g><g><path d="m58 13h-20-16.05-.01c-.33 3.46-2.44 6.4-5.4 7.91.89.74 1.46 1.85 1.46 3.09h3c1.1 0 2 .89 2 2 0 .55-.22 1.05-.59 1.41-.36.37-.86.59-1.41.59h-3l.85 8.5c.01.1.01.21.01.31 0 .81-.3 1.59-.86 2.19h44v-22c0-2.21-1.79-4-4-4z" fill="#69d6f4"/></g><g><circle cx="48" cy="13" fill="#e6e9ed" r="10"/></g><g><path d="m27 29h8v6h-8z" fill="#fcd770"/></g><g><path d="m21.94 13c-.33 3.46-2.44 6.4-5.4 7.91-.69-.57-1.58-.91-2.54-.91h-4c-1.04 0-2.02.26-2.87.73-3.06-1.71-5.13-4.98-5.13-8.73 0-5.52 4.48-10 10-10s10 4.48 10 10c0 .34-.02.67-.06 1z" fill="#e6e9ed"/></g><g><path d="m10 35v5c-3.58-1.19-6-4.55-6-8.33v-3.67h6l-.94.94c-.68.68-1.06 1.6-1.06 2.56s.38 1.88 1.06 2.56z" fill="#656d78"/></g><g><path d="m18 24h-2.76c-.76 0-1.45.43-1.79 1.1l-1.45 2.9h-2-6v-2c0-2.27 1.27-4.25 3.13-5.27.85-.47 1.83-.73 2.87-.73h4c.96 0 1.85.34 2.54.91.89.74 1.46 1.85 1.46 3.09z" fill="#ff826e"/></g><g><path d="m21 24c1.1 0 2 .89 2 2 0 .55-.22 1.05-.59 1.41-.36.37-.86.59-1.41.59h-3-6l1.45-2.9c.34-.67 1.03-1.1 1.79-1.1h2.76z" fill="#fc6e51"/></g><g><path d="m35.57 53c1.34 0 2.43 1.09 2.43 2.43 0 .21-.03.41-.58 1.56-.22.28-.51.5-.85.66l-3.75 1.7-1.98-4.46 1.16-.53 1.31-.59.01-.01 1.2-.54c.32-.15.66-.22 1.01-.22z" fill="#f0d0b4"/></g><g><path d="m10 40v-5l-.94-.94c-.68-.68-1.06-1.6-1.06-2.56s.38-1.88 1.06-2.56l.94-.94h2 6l.85 8.5c.01.1.01.21.01.31 0 .81-.3 1.59-.86 2.19-.03.03-.05.05-.07.07-.59.59-1.4.93-2.25.93h.32v3.08c-.42-.05-.85-.08-1.29-.08-1.67 0-3.26.39-4.67 1.08l-.04-.08z" fill="#f0d0b4"/></g></g><g><path d="m13 10.162 1.279 3.838h4.721v-2h-3.279l-2.721-8.162-3.186 9.556-1.196-2.394h-3.618v2h2.382l2.804 5.606z"/><path d="m58 48c2.757 0 5-2.243 5-5v-26c0-2.43-1.744-4.456-4.046-4.904-.462-5.643-5.194-10.096-10.954-10.096-5.728 0-10.442 4.402-10.949 10h-14.051c0-6.065-4.935-11-11-11s-11 4.935-11 11c0 3.468 1.642 6.707 4.364 8.77-1.446 1.283-2.364 3.149-2.364 5.23v1.999 1 2.676c0 3.969 2.383 7.503 6 9.014v2.808c-3.575 2.007-6 5.831-6 10.214v9.289h22.856v-.023c1.037-.054 2.044-.288 2.994-.72l8.136-3.698c.317-.144.603-.334.856-.559h4.158c1.302 0 2.402-.839 2.816-2h15.184c1.654 0 3-1.346 3-3s-1.346-3-3-3h-6c-.552 0-1-.448-1-1v-1zm0-2h-34.512c-1.677-1.9-3.945-3.252-6.488-3.765v-1.47c.499-.167.959-.425 1.364-.765h42.636v3c0 1.654-1.346 3-3 3zm-18 4h-1.764c-2.049 0-3.998.95-5.236 2.476v-4.476h8v2.101c-.323-.066-.658-.101-1-.101zm-13.186 5.623-.51-3.568c-.209-1.46-.69-2.826-1.383-4.055h6.079v5.72zm-13.196-28.624.724-1.447c.17-.341.513-.553.895-.553h5.763c.552 0 1 .449 1 1s-.448 1-1 1zm34.382-22.999c4.963 0 9 4.038 9 9s-4.037 9-9 9-9-4.038-9-9 4.037-9 9-9zm-10.949 10c.507 5.598 5.221 10 10.949 10 5.672 0 10.353-4.316 10.937-9.835 1.194.396 2.063 1.51 2.063 2.835v21h-41.324c.152-.513.224-1.053.168-1.602l-.74-7.399h1.896c1.654 0 3-1.346 3-3s-1.346-3-3-3h-2.101c-.139-.68-.43-1.301-.815-1.851 2.495-1.656 4.176-4.228 4.712-7.148zm-34.051-2c0-4.962 4.037-9 9-9s9 4.038 9 9c0 3.207-1.689 6.106-4.422 7.726-.754-.457-1.633-.726-2.577-.726h-4.001c-.997 0-1.944.213-2.803.59-2.593-1.645-4.197-4.5-4.197-7.59zm2 14c0-2.757 2.243-5 5-5h4.001c1.304 0 2.415.835 2.827 1.999h-1.592c-1.144 0-2.172.635-2.684 1.658l-1.171 2.342h-6.381zm0 5.675v-2.676h2.741c-.479.74-.741 1.599-.741 2.501 0 1.216.493 2.407 1.354 3.268l.646.646v3.043c-2.434-1.353-4-3.921-4-6.782zm4.768 1.679c-.488-.488-.768-1.164-.768-1.854 0-.7.272-1.358.768-1.854l.647-.647h6.68l.76 7.6c.066.653-.163 1.296-.629 1.762-.406.406-.97.64-1.545.64h-2.681v2h2v1.013c-.097-.003-.192-.014-.289-.014-1.298 0-2.543.221-3.711.613v-8.027zm18.254 27.083c-.821.374-1.696.563-2.6.563-2.798 0-5.218-1.801-6.021-4.48l-1.442-4.807-1.916.574 1.442 4.807c.472 1.575 1.384 2.9 2.559 3.906h-15.044v-7.289c0-5.355 4.356-9.711 9.711-9.711 4.801 0 8.934 3.584 9.612 8.338l.593 4.147-1.33.605.828 1.82 5.921-2.692 1.171 2.634zm8.137-3.699-2.831 1.287-1.171-2.635 2.778-1.263c.184-.083.388-.127.631-.127.79 0 1.434.644 1.434 1.434 0 .56-.33 1.072-.841 1.304zm5.841-.738h-3.052c.032-.186.052-.374.052-.566 0-1.457-.915-2.696-2.216-3.194.466-.151.953-.24 1.452-.24h1.764c1.654 0 3 1.346 3 3 0 .552-.448 1-1 1zm12-4h6c.552 0 1 .448 1 1s-.448 1-1 1h-15.101c-.247-1.213-.946-2.253-1.899-2.974v-3.026h8v1c0 1.654 1.346 3 3 3z"/><path d="m57 42h2v2h-2z"/><path d="m53 42h2v2h-2z"/><path d="m49 42h2v2h-2z"/><path d="m42 8h2v2h-2z"/><path d="m46 8h8v2h-8z"/><path d="m42 12h2v2h-2z"/><path d="m46 12h8v2h-8z"/><path d="m42 16h2v2h-2z"/><path d="m46 16h8v2h-8z"/><path d="m36 28h-10v8h10zm-2 6h-6v-4h6z"/><path d="m26 24h10v2h-10z"/><path d="m26 20h10v2h-10z"/><path d="m26 16h10v2h-10z"/><path d="m38 34h2v2h-2z"/><path d="m42 34h17v2h-17z"/><path d="m38 30h21v2h-21z"/><path d="m38 26h21v2h-21z"/></g></symbol></svg>